:SAMPLES-PER-SECOND 30
:FULLY-SPECIFIED
:DEGREES
233
root  34.82440137 36.49603776 -14.98203127 8.063312531 -6.076375484 4.100937843
lowerback  -6.776410103 -1.906870008 -1.841640115
upperback  -4.440760136 -1.946419954 -3.790250063
thorax  -0.8531100154 -0.7732589841 -2.993429899
lowerneck  -2.763880014 -16.24799919 -12.05490017
upperneck  11.80790043 -22.70629883 13.54360008
head  6.998660088 -10.68859959 4.095580101
lclavicle  0 -4.497500157e-015 -2.743230041e-014
lhumerus  -50.46889877 29.54770088 61.94260025
lradius  -2.057401616e-006 -6.507048965e-006 30.80190086
lwrist  4.824992743e-007 -3.790274832e-007 -28.16120148
lhand  -4.417268239e-031 -36.9280014 -10.7748003
lfingers  90 7.125020027 -90
lthumb  94.85049181 -25.60776373 101.1081755
rclavicle  0 -4.497500157e-015 -2.743230041e-014
rhumerus  -47.62030029 -33.09389877 6.872067928
rradius  -5.16745672e-007 2.214343908e-008 76.89379883
rwrist  -0.0001011603963 -0.001600692281 176.6849976
rhand  -1.77000414e-031 4.059869766 -7.365640163
rfingers  -90 -7.125020027 -90
rthumb  -85.06543446 -8.654237769 -60.15348924
rfemur  -12.70735264 16.41052055 12.55536175
rtibia  -1.663831472 -1.356571317 21.85516548
rfoot  -0.05536491051 -22.42570686 -35.59189606
rtoes  3.803324631 19.64959266 -101.1828783
lfemur  -8.152532578 -17.22966766 -20.97547722
ltibia  2.4056499 -1.704193592 15.34666824
lfoot  1.175543547 -22.64144707 38.46324921
ltoes  -8.658249288 -18.09829998 -116.1135101
234
root  34.82340715 36.49504354 -14.98284077 8.037092209 -6.054302216 4.09509182
lowerback  -6.797439575 -1.930040002 -1.859730244
upperback  -4.439919949 -1.977280021 -3.752799988
thorax  -0.8397039771 -0.7886279821 -2.946810007
lowerneck  -2.934619904 -16.09300041 -12.02219963
upperneck  11.95790005 -22.47839737 13.42560005
head  7.027090073 -10.57369995 4.072969913
lclavicle  0 -4.497500157e-015 -2.743230041e-014
lhumerus  -50.51259995 29.58810043 61.9416008
lradius  -2.057401616e-006 -6.507048965e-006 30.81870079
lwrist  4.824992743e-007 -3.790274832e-007 -28.17539787
lhand  -4.419094784e-031 -36.95949936 -10.73480034
lfingers  90 7.125020027 -90
lthumb  94.85676144 -25.56741503 101.1382029
rclavicle  0 -4.497500157e-015 -2.743230041e-014
rhumerus  -48.46620178 -32.71849823 6.553521633
rradius  -5.16745672e-007 2.214343908e-008 78.1434021
rwrist  -0.0001011603963 -0.001600692281 176.3690033
rhand  -1.769738713e-031 3.936939955 -7.353980064
rfingers  -90 -7.125020027 -90
rthumb  -85.08771204 -8.656589792 -60.27247766
rfemur  -12.67091465 16.43857765 12.57142925
rtibia  -1.65912962 -1.333497167 21.84707069
rfoot  -0.05612863973 -22.39160728 -35.63563538
rtoes  3.807813538 19.64875639 -101.1962278
lfemur  -8.126383781 -17.27952003 -20.98095512
ltibia  2.395356417 -1.732476711 15.35251617
lfoot  1.140531421 -22.5848217 38.42061234
ltoes  -8.653079154 -18.10070802 -116.0968682
235
root  34.82241893 36.49404931 -14.98344151 8.01367569 -6.034736633 4.079249859
lowerback  -6.803579807 -1.950410008 -1.865659714
upperback  -4.44455719 -2.004859924 -3.724479914
thorax  -0.8469979763 -0.8021860123 -2.915780067
lowerneck  -3.023799896 -15.91829967 -12.0468998
upperneck  12.02519989 -22.22979927 13.4005003
head  7.030889988 -10.4520998 4.09705019
lclavicle  0 -4.497500157e-015 -2.743230041e-014
lhumerus  -50.5760994 29.62669945 61.93050003
lradius  -2.057401616e-006 -6.507048965e-006 30.84059906
lwrist  4.824992743e-007 -3.790274832e-007 -28.16869926
lhand  -4.417807257e-031 -36.93730164 -10.78250027
lfingers  90 7.125020027 -90
lthumb  94.85652206 -25.61495088 101.1188686
rclavicle  0 -4.497500157e-015 -2.743230041e-014
rhumerus  -49.31909943 -32.51459885 6.303250313
rradius  -5.16745672e-007 2.214343908e-008 79.1595993
rwrist  -0.0001011603963 -0.001465618028 176.3959961
rhand  -1.769628806e-031 3.884890079 -7.297520161
rfingers  -90 -7.125020027 -90
rthumb  -85.07136118 -8.702283751 -60.31895978
rfemur  -12.64125252 16.45469093 12.59679699
rtibia  -1.655754089 -1.297889948 21.84238815
rfoot  -0.04743247479 -22.33837509 -35.64369965
rtoes  3.850446632 19.64076271 -101.3230413
lfemur  -8.080580711 -17.23934555 -20.97364998
ltibia  2.398430109 -1.705664992 15.32526398
lfoot  1.129898429 -22.62735939 38.39243317
ltoes  -8.652077574 -18.10117431 -116.0936445
236
root  34.82125951 36.49294095 -14.98383349 7.992418289 -6.013254642 4.079354763
lowerback  -6.841010571 -1.956940174 -1.844599962
upperback  -4.449843884 -2.016390085 -3.675359964
thorax  -0.8223599792 -0.8092250228 -2.87842989
lowerneck  -3.149820089 -15.75269985 -12.10289955
upperneck  12.1079998 -21.99030113 13.36620045
head  7.049520016 -10.33510017 4.117310047
lclavicle  0 -4.497500157e-015 -2.743230041e-014
lhumerus  -50.6446991 29.6833992 61.94820023
lradius  -2.057401616e-006 -6.507048965e-006 30.87310028
lwrist  4.824992743e-007 -3.790274832e-007 -28.20739937
lhand  -4.417320405e-031 -36.92890167 -10.82409954
lfingers  90 7.125020027 -90
lthumb  94.86143285 -25.65617045 101.1136264
rclavicle  0 -4.497500157e-015 -2.743230041e-014
rhumerus  -50.18999863 -32.21509933 6.034282684
rradius  -5.16745672e-007 2.214343908e-008 80.43979645
rwrist  -0.0001011603963 -0.001286235754 176.322937
rhand  -1.76984499e-031 3.986619949 -7.211589813
rfingers  -90 -7.125020027 -90
rthumb  -85.00479824 -8.783324542 -60.21322894
rfemur  -12.6210146 16.45192528 12.60844612
rtibia  -1.653823018 -1.280468702 21.85472488
rfoot  -0.06181441993 -22.31951141 -35.67773056
rtoes  3.838980138 19.6429218 -101.288929
lfemur  -8.028907776 -17.19927788 -20.9826355
ltibia  2.418046236 -1.676444173 15.27018452
lfoot  1.121834278 -22.66135406 38.3736496
ltoes  -8.646680235 -18.10368589 -116.0762739
237
root  34.8204425 36.4926586 -14.98409782 7.990262032 -6.00347662 4.06529665
lowerback  -6.839169979 -1.952579975 -1.83217001
upperback  -4.451600075 -2.013999939 -3.641030073
thorax  -0.8267220259 -0.8088859916 -2.849519968
lowerneck  -3.264260054 -15.60000038 -12.12950039
upperneck  12.18420029 -21.76849937 13.32159996
head  7.061800003 -10.22649956 4.129449844
lclavicle  0 -4.497500157e-015 -2.743230041e-014
lhumerus  -50.69919968 29.69659996 61.98109818
lradius  -2.057401616e-006 -6.507048965e-006 30.90439796
lwrist  4.824992743e-007 -3.790274832e-007 -28.12579918
lhand  -4.42057567e-031 -36.98500061 -10.80420017
lfingers  90 7.125020027 -90
lthumb  94.88365101 -25.63459132 101.1719267
rclavicle  0 -4.497500157e-015 -2.743230041e-014
rhumerus  -51.04570007 -31.87800217 5.69283247
rradius  -5.16745672e-007 2.214343908e-008 81.65059662
rwrist  -0.0001011603963 -0.001102880226 175.8029633
rhand  -1.769946837e-031 4.033649921 -7.026569843
rfingers  -90 -7.125020027 -90
rthumb  -84.90074644 -8.946739628 -60.15300309
rfemur  -12.62437344 16.4861145 12.62372303
rtibia  -1.654898643 -1.265425444 21.85711861
rfoot  -0.06827782094 -22.30067825 -35.71549606
rtoes  3.822774898 19.64596171 -101.2407252
lfemur  -8.034062386 -17.23104668 -20.95841789
ltibia  2.401448965 -1.681351542 15.28305149
lfoot  1.120069265 -22.64798737 38.40055466
ltoes  -8.659702993 -18.09762257 -116.1181898
